# xmcd
#
# Track frame offsets:
#	150
#	17106
#	34383
#	53408
#	71291
#	88975
#	108776
#	124274
#	142279
#	160827
#	189489
#
# Disc length: 3392 seconds
#
# Revision: 1
# Processed by: cddbd v1.5.2PL0 Copyright (c) Steve Scherf et al.
# Submitted via: audiograbber 1.83.01
#
DISCID=960d3e0b
DTITLE=Various Artist - ASK-105 Young Male Country Vol 1 Disc 1
DYEAR=1900
DGENRE=Karaoke
TTITLE0=Blake Shelton - Don't Make Me
TTITLE1=Blake Shelton - Home
TTITLE2=Blake Shelton - I'll Just Hold On
TTITLE3=Blake Shelton - Ol' Red
TTITLE4=Blake Shelton - She Wouldn't Be Gone
TTITLE5=Brad Paisley - Alcohol
TTITLE6=Brad Paisley - I'l Gonna Miss Her
TTITLE7=Brad Paisley - She's Everything
TTITLE8=Brad Paisley - Ticks
TTITLE9=Brad Paisley - We Danced
TTITLE10=Data - Track
EXTD=
EXTT0=
EXTT1=
EXTT2=
EXTT3=
EXTT4=
EXTT5=
EXTT6=
EXTT7=
EXTT8=
EXTT9=
EXTT10=
PLAYORDER=
